<svg width="35" height="35" viewBox="0 0 35 35" fill="none" xmlns="http://www.w3.org/2000/svg">
<path d="M0 23.3618V0.9818C0.00734093 0.81442 0.0768432 0.655861 0.195312 0.537392C0.313782 0.418922 0.472269 0.349138 0.639648 0.341797H4.14941C4.31475 0.347026 4.47181 0.417079 4.58594 0.536823C4.70007 0.656568 4.76247 0.816399 4.75977 0.9818V23.3618C4.75977 23.5236 4.69545 23.6787 4.58105 23.7931C4.46666 23.9075 4.3112 23.9718 4.14941 23.9718H0.639648C0.474982 23.972 0.316463 23.9087 0.197266 23.7951C0.0780687 23.6815 0.00771864 23.5263 0 23.3618V23.3618Z" fill="#006699"/>
<path d="M12.9502 4.35184C13.9945 3.06962 15.2953 2.02018 16.7695 1.271C18.2438 0.521823 19.8584 0.0894984 21.5098 0.00183913C21.6062 -0.00521613 21.703 0.00807777 21.794 0.0408558C21.8849 0.0736339 21.9683 0.125165 22.0381 0.192109C22.1079 0.259053 22.1627 0.339916 22.1992 0.429451C22.2357 0.518987 22.2531 0.615197 22.25 0.711842V3.64184C22.25 4.08184 22.0198 4.31184 21.5498 4.35184C20.5333 4.4378 19.5449 4.7305 18.6455 5.21198C17.7462 5.69346 16.9545 6.35357 16.3193 7.15184C15.6562 7.93359 15.154 8.83839 14.8408 9.81449C14.5277 10.7906 14.4096 11.8188 14.4941 12.8405C14.5787 13.8621 14.8637 14.857 15.333 15.7684C15.8023 16.6798 16.4469 17.4897 17.2295 18.1518C18.0004 18.8118 18.8952 19.3115 19.8613 19.6218C20.8275 19.9322 21.8455 20.047 22.8565 19.9595C23.8675 19.872 24.8516 19.5839 25.75 19.1122C26.6485 18.6404 27.4438 17.9944 28.0899 17.2118C29.0791 16.0331 29.7012 14.5902 29.8789 13.0617C30.0566 11.5332 29.7822 9.98611 29.0899 8.61184C29.005 8.50289 28.9432 8.37756 28.9092 8.24374C28.8752 8.10992 28.87 7.97051 28.8926 7.83429C28.9151 7.69808 28.9657 7.56801 29.041 7.45228C29.1163 7.33655 29.2147 7.23766 29.3301 7.16184C29.7001 6.96184 30.9101 6.08184 31.3301 5.78184C31.4378 5.71276 31.5583 5.66664 31.6846 5.64636C31.8109 5.62609 31.9396 5.63209 32.0635 5.66401C32.1874 5.69592 32.3035 5.75305 32.4043 5.83183C32.5051 5.91061 32.5885 6.00934 32.6494 6.12184C33.873 8.28703 34.4156 10.771 34.2051 13.2491C33.9946 15.7271 33.041 18.0841 31.4697 20.0118C30.4608 21.2379 29.2189 22.2515 27.8154 22.9939C26.4119 23.7364 24.8742 24.1929 23.293 24.3371C21.7117 24.4813 20.1182 24.3102 18.6035 23.8338C17.0889 23.3574 15.6838 22.5852 14.4697 21.5618C12.0142 19.463 10.4795 16.485 10.1953 13.2672C9.91113 10.0495 10.9006 6.84859 12.9502 4.35184V4.35184Z" fill="#006699"/>
<path d="M27.6299 32.7218L26.5196 33.0918C25.298 33.4797 24.0424 33.7509 22.7696 33.9018C21.2896 34.0318 19.0694 34.1718 19.0694 34.1718C17.8202 34.2367 16.5686 34.2367 15.3194 34.1718C15.3194 34.1718 13.4694 34.0718 11.6094 33.8718C10.3233 33.6839 9.05328 33.3997 7.80964 33.0218L6.80964 32.6918C6.59978 32.6151 6.41665 32.4804 6.28034 32.3034C6.14403 32.1264 6.06061 31.9143 6.04011 31.6918V29.9918C6.0345 29.8956 6.05148 29.7995 6.09089 29.7116C6.1303 29.6236 6.19114 29.5465 6.26667 29.4866C6.3422 29.4268 6.43084 29.386 6.52546 29.3678C6.62008 29.3495 6.71727 29.3544 6.80964 29.3818L7.80964 29.6518C11.5496 30.5918 12.6894 30.9318 15.3194 31.0018C16.3194 31.0018 18.0194 31.0018 19.0694 30.9318C19.0694 30.9318 21.0196 30.7918 22.7696 30.5918C24.0599 30.4135 25.3345 30.1326 26.5801 29.7518L27.5801 29.4118C27.6685 29.3814 27.7624 29.3736 27.8546 29.3891C27.9467 29.4046 28.0339 29.4429 28.1075 29.5006C28.1811 29.5582 28.2394 29.6334 28.2764 29.7192C28.3135 29.805 28.3278 29.8987 28.3194 29.9918V31.6718C28.3138 31.8938 28.247 32.1098 28.1251 32.2953C28.0031 32.4809 27.8315 32.6286 27.6299 32.7218V32.7218Z" fill="#006699"/>
<path d="M27.4393 12.2117C27.4413 13.2505 27.1351 14.2665 26.5594 15.1311C25.9837 15.9958 25.165 16.6703 24.2059 17.0692C23.2468 17.4681 22.1908 17.5735 21.1717 17.372C20.1527 17.1706 19.2165 16.6714 18.4813 15.9375C17.7461 15.2037 17.2442 14.2683 17.0409 13.2496C16.8375 12.2309 16.9416 11.1748 17.3387 10.2149C17.7358 9.25501 18.4078 8.43448 19.2713 7.85716C20.1349 7.27984 21.1505 6.97168 22.1893 6.97168C23.58 6.97168 24.914 7.52343 25.8983 8.50583C26.8826 9.48824 27.4367 10.821 27.4393 12.2117Z" fill="#139FFF"/>
</svg>